<?xml version="1.0" standalone="no"?><!DOCTYPE svg PUBLIC "-//W3C//DTD SVG 1.1//EN" "http://www.w3.org/Graphics/SVG/1.1/DTD/svg11.dtd"><svg t="1666084747152" class="icon" viewBox="0 0 1024 1024" version="1.1" xmlns="http://www.w3.org/2000/svg" p-id="2117" xmlns:xlink="http://www.w3.org/1999/xlink" width="200" height="200"><path d="M647.470903 237.983159c0 12.343119-6.618744 22.347984-14.782681 22.347984L203.432761 260.331143c-8.16496 0-14.782681-10.004865-14.782681-22.347984l0 0c0-12.341073 6.618744-22.344914 14.782681-22.344914l429.254437 0C640.852158 215.637222 647.470903 225.642087 647.470903 237.983159L647.470903 237.983159z" p-id="2118" ></path><path d="M647.470903 385.587915c0 12.343119-6.618744 22.346961-14.782681 22.346961L203.432761 407.934876c-8.16496 0-14.782681-10.003841-14.782681-22.346961l0 0c0-12.342096 6.618744-22.345937 14.782681-22.345937l429.254437 0C640.852158 363.240955 647.470903 373.245819 647.470903 385.587915L647.470903 385.587915z" p-id="2119" ></path><path d="M401.542794 540.215622c0 12.342096-3.070942 22.345937-6.860245 22.345937L195.509301 562.561559c-3.78828 0-6.859221-10.003841-6.859221-22.345937l0 0c0-12.342096 3.070942-22.346961 6.859221-22.346961l199.174272 0C398.471852 517.868661 401.542794 527.874549 401.542794 540.215622L401.542794 540.215622z" p-id="2120" ></path><path d="M340.440158 684.762739c0 12.343119-2.189875 22.345937-4.891404 22.345937L193.541483 707.108676c-2.701528 0-4.891404-10.002818-4.891404-22.345937l0 0c0-12.344143 2.189875-22.345937 4.891404-22.345937l142.006248 0C338.250282 662.416801 340.440158 672.419619 340.440158 684.762739L340.440158 684.762739z" p-id="2121" ></path><path d="M957.396581 692.818205c0 148.875702-120.68771 269.567505-269.564435 269.567505-148.872632 0-269.562389-120.688733-269.562389-269.567505 0-148.872632 120.68771-269.562389 269.561365-269.562389C802.1948 423.255817 957.396581 523.004635 957.396581 692.818205zM686.851818 463.952704c-126.402875 0-228.868571 102.46672-228.868571 228.867548 0 126.402875 102.465696 228.867548 228.868571 228.867548 126.396735 0 228.866524-102.464673 228.866524-228.867548C915.718343 566.419424 813.248553 463.952704 686.851818 463.952704z" p-id="2122" ></path><path d="M151.592069 60.911278c0 0-89.040942-5.709025-86.759993 95.893001 0 58.222029-0.042979 700.943256-0.042979 700.943256s-11.376095 61.642942 86.803995 63.927985c98.17702 2.287089 307.576167 1.016143 307.576167 1.016143s-13.301957-25.399483-9.876951-49.372477c-30.824029 0-285.885146-3.300162-285.885146-3.300162s-50.036603 15.529695-50.036603-96.344279c0-111.877043 3.038196-589.758991 3.038196-589.758991s-5.487991-64.465221 78.993099-66.747193c80.276325-2.170432 80.804351-2.034333 587.942623-2.834558 0 0 39.500643-5.814426 39.500643 54.691623 0 60.505026-1.518586 270.337031-1.518586 270.337031s36.918841 1.13894 47.192835 12.55392c0-33.107025-0.001023-285.978267-0.001023-285.978267s1.13894-101.718683-60.506049-105.08536C746.36219 57.484226 151.592069 60.911278 151.592069 60.911278z" p-id="2123" ></path><path d="M559.715233 680.372755l82.324984 89.87289 173.056428-173.495426c0 0 22.745027-4.691859 24.969695 25.78834-13.350053 14.06739-196.542328 196.162682-196.542328 196.162682l-106.802468-111.10854C536.721543 707.593723 533.013081 681.935344 559.715233 680.372755z" p-id="2124" ></path></svg>