<?xml version="1.0" standalone="no"?><!DOCTYPE svg PUBLIC "-//W3C//DTD SVG 1.1//EN" "http://www.w3.org/Graphics/SVG/1.1/DTD/svg11.dtd"><svg t="1666085077011" class="icon" viewBox="0 0 1024 1024" version="1.1" xmlns="http://www.w3.org/2000/svg" p-id="6503" xmlns:xlink="http://www.w3.org/1999/xlink" width="200" height="200"><path d="M550.704128 248.228864l0 401.13664L362.160128 649.365504c-4.943872 21.083136-15.707136 39.949312-30.53568 54.74304-20.709376 20.764672-49.34144 33.536-80.943104 33.536-31.601664 0-60.243968-12.771328-80.96256-33.536-14.809088-14.793728-25.573376-33.659904-30.5152-54.74304l-36.245504 0 0-0.631808-29.42976 0 0-92.15488 29.42976 0L102.95808 248.228864 550.704128 248.228864 550.704128 248.228864zM211.127296 583.631872c-10.126336 10.124288-16.37376 24.087552-16.37376 39.554048 0 15.422464 6.248448 29.42464 16.37376 39.548928 10.104832 10.126336 24.107008 16.374784 39.554048 16.374784 15.44704 0 29.42976-6.249472 39.554048-16.374784 10.125312-10.124288 16.374784-24.127488 16.374784-39.548928 0-15.42656-6.249472-29.42976-16.374784-39.554048-10.124288-10.125312-24.107008-16.37376-39.554048-16.37376C235.234304 567.258112 221.232128 573.507584 211.127296 583.631872L211.127296 583.631872zM900.603904 649.366528l-14.775296 0c-4.942848 21.083136-15.721472 39.949312-30.53568 54.74304-20.70528 20.764672-49.32096 33.536-80.94208 33.536-31.602688 0-60.235776-12.771328-80.963584-33.536-14.828544-14.793728-25.591808-33.659904-30.53568-54.74304l-78.918656 0L583.932928 280.937472l226.922496 0 113.596416 156.19584 0 105.836544 31.187968 0 0 106.395648-31.187968 0L900.603904 649.365504 900.603904 649.366528zM734.780416 583.631872c-10.105856 10.124288-16.360448 24.087552-16.360448 39.554048 0 15.422464 6.253568 29.42464 16.360448 39.548928 10.143744 10.126336 24.107008 16.374784 39.570432 16.374784 15.446016 0 29.427712-6.249472 39.553024-16.374784 10.126336-10.124288 16.374784-24.127488 16.374784-39.548928 0-15.42656-6.249472-29.42976-16.374784-39.554048-10.125312-10.125312-24.107008-16.37376-39.553024-16.37376C758.887424 567.258112 744.92416 573.507584 734.780416 583.631872L734.780416 583.631872zM781.175808 339.51744 642.480128 339.51744l0 107.024384 216.549376 0L781.175808 339.51744z" p-id="6504" ></path></svg>