<?xml version="1.0" standalone="no"?><!DOCTYPE svg PUBLIC "-//W3C//DTD SVG 1.1//EN" "http://www.w3.org/Graphics/SVG/1.1/DTD/svg11.dtd"><svg t="1666084891294" class="icon" viewBox="0 0 1034 1024" version="1.1" xmlns="http://www.w3.org/2000/svg" p-id="2681" xmlns:xlink="http://www.w3.org/1999/xlink" width="201.953125" height="200"><path d="M978.84511 382.136195a37.565931 37.565931 0 1 0-26.555227-69.950354 37.565931 37.565931 0 1 0 26.555227 69.950354zM994.389633 459.858812a37.565931 37.565931 0 1 0 0 75.131862 37.565931 37.565931 0 1 0 0-75.131862zM983.378929 610.770224a37.565931 37.565931 0 1 0-10.363015 74.484174 37.565931 37.565931 0 1 0 11.010703-74.484174zM878.453397 770.101587a36.270554 36.270554 0 0 0 9.715327 52.462766 37.565931 37.565931 0 1 0 42.747439-64.768847 36.270554 36.270554 0 0 0-52.462766 12.306081zM778.709373 871.788676a36.270554 36.270554 0 0 0-7.772261 53.110455 37.565931 37.565931 0 1 0 60.235027-44.690504 36.270554 36.270554 0 0 0-52.462766-8.419951zM653.705499 937.8529a36.270554 36.270554 0 0 0-23.964473 47.928947 37.565931 37.565931 0 1 0 71.245731-23.964474 36.270554 36.270554 0 0 0-47.281258-23.964473zM513.80479 959.226619a447.552731 447.552731 0 1 1 299.879761-777.22616h-45.985881a32.384423 32.384423 0 0 0 0 64.768847h115.936235a32.384423 32.384423 0 0 0 32.384423-32.384423V97.15327a32.384423 32.384423 0 0 0-64.768846 0V129.537693a511.673889 511.673889 0 1 0-337.445692 894.457773 32.384423 32.384423 0 0 0 0-64.768847z"  p-id="2682"></path><path d="M791.663143 794.06606a32.384423 32.384423 0 0 0 0-45.985881l-245.473929-246.121617V287.573679a32.384423 32.384423 0 0 0-64.768847 0V518.150774a32.384423 32.384423 0 0 0 9.715327 22.669096l255.189256 255.189256a32.384423 32.384423 0 0 0 45.985881 0z"  p-id="2683"></path></svg>