<?xml version="1.0" standalone="no"?><!DOCTYPE svg PUBLIC "-//W3C//DTD SVG 1.1//EN" "http://www.w3.org/Graphics/SVG/1.1/DTD/svg11.dtd"><svg t="1666084938873" class="icon" viewBox="0 0 1024 1024" version="1.1" xmlns="http://www.w3.org/2000/svg" p-id="3076" xmlns:xlink="http://www.w3.org/1999/xlink" width="200" height="200"><path d="M519.3 533.6L162.1 840.7C252.6 937 378.9 991.5 511 991.5c257.7 0 467.5-203.1 479.5-457.8l-471.2-0.1z m-31-502.1C233.5 43.4 30.5 253.2 30.5 510.9c0 111.6 38.3 214 102.1 295.4l355.7-305.8v-469z m409.9 196.2c-12-16.3-24.9-31.8-38.9-46.5L533.7 461v27.2h62l302.5-260.5zM667.5 57L533.7 172.1v80.7L729.7 84c-20-10.4-40.8-19.4-62.2-27m106.7 52.9L533.7 316.6v80.7l290.2-250c-15.7-13.6-32.3-26.1-49.7-37.4m156.9 378.3l54.7-47.2c-3.4-22.8-8.5-45.3-15.3-67.3l-133 114.4h93.6zM533.7 31.5v77L611 41.8c-25.4-5.5-51.3-8.9-77.3-10.3m135.9 456.7h93.9l189.7-163.4c-8.2-19.3-17.5-38.1-28-56.3L673.5 484.8l-3.9 3.4z"  p-id="3077"></path></svg>