<?xml version="1.0" standalone="no"?><!DOCTYPE svg PUBLIC "-//W3C//DTD SVG 1.1//EN" "http://www.w3.org/Graphics/SVG/1.1/DTD/svg11.dtd"><svg t="1665903399070" class="icon" viewBox="0 0 1024 1024" version="1.1" xmlns="http://www.w3.org/2000/svg" p-id="34817" xmlns:xlink="http://www.w3.org/1999/xlink" width="200" height="200"><path d="M511.84128 512m-450.56 0a450.56 450.56 0 1 0 901.12 0 450.56 450.56 0 1 0-901.12 0Z" fill="#F39691" p-id="34818"></path><path d="M587.4432 583.99744m-346.63936 0a346.63936 346.63936 0 1 0 693.27872 0 346.63936 346.63936 0 1 0-693.27872 0Z" fill="#F28281" p-id="34819"></path><path d="M481.65888 486.2208a245.248 245.248 0 1 1 0.03072 346.77248 245.20704 245.20704 0 0 1-0.03072-346.77248z" fill="#F06D71" p-id="34820"></path><path d="M793.6 402.34496h-61.61408l-27.91936-80.33792a37.48864 37.48864 0 0 0-35.45088-25.088h-308.2752a37.48864 37.48864 0 0 0-35.456 25.088l-27.86304 80.33792H235.52v37.27872h48.57344l-33.5104 96.59904a36.864 36.864 0 0 0-2.048 12.11392v141.4656A37.4016 37.4016 0 0 0 286.03904 727.04h58.14784a37.59616 37.59616 0 0 0 36.10624-27.136l8.97536-31.8464 246.92224-0.03584 21.5552 39.5264a37.51936 37.51936 0 0 0 32.98304 19.49184h52.32128a37.40672 37.40672 0 0 0 37.504-37.21728V548.352a37.0432 37.0432 0 0 0-2.048-12.11904L744.96 439.6288h48.64v-37.28384zM360.34048 334.20288l308.224-0.04096 23.69024 68.18304H336.7168z m330.43968 355.57888L669.21984 650.24a37.504 37.504 0 0 0-32.97792-19.49696H389.26848a37.59616 37.59616 0 0 0-36.10112 27.136l-8.98048 31.8464-58.0864 0.06144v-125.952h456.89856l0.0512 125.87008z m44.6464-163.18976H293.64224l30.14656-86.9632h381.44z" fill="#FFFFFF" p-id="34821"></path></svg>