<?xml version="1.0" standalone="no"?><!DOCTYPE svg PUBLIC "-//W3C//DTD SVG 1.1//EN" "http://www.w3.org/Graphics/SVG/1.1/DTD/svg11.dtd"><svg t="1665905987269" class="icon" viewBox="0 0 1160 1024" version="1.1" xmlns="http://www.w3.org/2000/svg" p-id="15550" xmlns:xlink="http://www.w3.org/1999/xlink" width="226.5625" height="200"><path d="M1134.076379 890.749646h-34.871038c0.040554-1.448373 0.110076-2.888057 0.110076-4.34512a152.079208 152.079208 0 0 0-304.158416 0c0 1.457064 0.069522 2.896747 0.110077 4.34512H482.308345a26.070721 26.070721 0 0 1-26.070721-26.070721V279.536068a46.347949 46.347949 0 0 1 46.347949-46.347949h260.484164L1160.1471 464.302167V864.678925a26.070721 26.070721 0 0 1-26.070721 26.070721zM970.410184 470.721358H580.797737v179.598303h138.539813l2.875021 2.875021 2.875022-2.875021H970.410184V470.721358z m82.557284 63.004243h-42.002829v56.486563h42.002829v-56.486563z m-171.084764-50.693069H955.202263v37.725782L830.190257 638.008487h-92.79149L887.128713 488.27854z m73.319559 154.975955h-105.524141l105.524141-98.971701V638.008487z m-333.673369 0L775.60396 483.93342l-0.900888-0.900888h93.092753l-154.975955 154.975955h-91.290976zM598.902405 548.911796l65.879264-65.879264h87.144283L598.902405 636.056079v-87.144283z m0-65.879264h41.300367L598.902405 524.3329V483.032532z m0 154.975955v-0.94434l0.944339 0.94434h-0.944339zM414.234795 886.404526h-41.810195c0.072419-1.924888 0.144837-3.849777 0.144837-5.793493a152.079208 152.079208 0 1 0-304.158416 0c0 1.943717 0.073867 3.868605 0.144838 5.793493H26.750008a26.070721 26.070721 0 0 1-26.070721-26.070721V649.295661a17.264611 17.264611 0 0 1 5.027304-17.619463l107.808227-179.675066A17.371791 17.371791 0 0 1 130.353607 438.857143a17.670156 17.670156 0 0 1 1.781499 0.089799H414.234795a26.070721 26.070721 0 0 1 26.070721 26.070721V860.333805a26.070721 26.070721 0 0 1-26.070721 26.070721z m-55.03819-398.302687h-0.036209a15.184747 15.184747 0 0 0-14.447525-14.447525V473.618105H170.908062v0.00869a15.194885 15.194885 0 0 0-13.54374 8.68155h-0.092695L74.020571 628.594059h0.144838A15.904588 15.904588 0 0 0 86.902405 651.694167V651.768034h256.362093v-0.036209c0.241878 0.011587 0.479412 0.036209 0.724187 0.036209a15.207921 15.207921 0 0 0 15.035564-13.035361H359.196605V488.101839z m-139.043847 264.328147a133.250354 133.250354 0 1 1-133.250353 133.250353 133.250354 133.250354 0 0 1 133.250353-133.250353z m0 195.53041a62.280057 62.280057 0 1 0-62.280056-62.280057 62.280057 62.280057 0 0 0 62.280056 62.280057z m727.083451-191.18529a133.250354 133.250354 0 1 1-133.250353 133.250354 133.250354 133.250354 0 0 1 133.250353-133.250354z m0 195.53041a62.280057 62.280057 0 1 0-62.280056-62.280056 62.280057 62.280057 0 0 0 62.280056 62.280056z" p-id="15551" ></path></svg>