<?xml version="1.0" standalone="no"?><!DOCTYPE svg PUBLIC "-//W3C//DTD SVG 1.1//EN" "http://www.w3.org/Graphics/SVG/1.1/DTD/svg11.dtd"><svg t="1665906514242" class="icon" viewBox="0 0 1024 1024" version="1.1" xmlns="http://www.w3.org/2000/svg" p-id="14569" xmlns:xlink="http://www.w3.org/1999/xlink" width="200" height="200"><path d="M910.222222 960c0 35.271111-27.477333 64-61.269333 64H175.047111C141.255111 1024 113.777778 995.271111 113.777778 960V64C113.777778 28.728889 141.255111 0 175.047111 0h367.616c14.051556 0 30.094222 4.437333 44.828445 11.093333l6.257777-2.901333 153.144889 144.042667 130.446222 122.595555 22.755556 21.390222-2.730667 7.338667c7.793778 15.473778 12.856889 32.768 12.856889 48.469333v607.971556zM625.777778 113.777778v170.666666h170.666666L625.777778 113.777778z m227.555555 227.555555H568.888889V56.888889H170.666667v910.222222h682.666666V341.333333zM511.032889 556.430222l45.283555-45.340444 171.121778 171.178666h11.491556l0.170666 56.718223-45.511111-0.056889-0.056889 0.056889-0.056888-0.056889-409.429334-0.796445-0.170666-56.718222 352.768 0.682667-125.610667-125.667556z" p-id="14570" ></path></svg>