<?xml version="1.0" standalone="no"?><!DOCTYPE svg PUBLIC "-//W3C//DTD SVG 1.1//EN" "http://www.w3.org/Graphics/SVG/1.1/DTD/svg11.dtd"><svg t="1665908213118" class="icon" viewBox="0 0 1024 1024" version="1.1" xmlns="http://www.w3.org/2000/svg" p-id="16979" width="200" height="200" xmlns:xlink="http://www.w3.org/1999/xlink"><path d="M839.68 532.48h-184.32V384c0-11.3152-9.1648-20.48-20.48-20.48s-20.48 9.1648-20.48 20.48v168.96c0 11.3152 9.1648 20.48 20.48 20.48h204.8c11.3152 0 20.48-9.1648 20.48-20.48s-9.1648-20.48-20.48-20.48zM414.72 317.44H148.48c-11.3152 0-20.48 9.1648-20.48 20.48s9.1648 20.48 20.48 20.48h266.24c11.3152 0 20.48-9.1648 20.48-20.48s-9.1648-20.48-20.48-20.48zM414.72 440.32H230.4c-11.3152 0-20.48 9.1648-20.48 20.48s9.1648 20.48 20.48 20.48h184.32c11.3152 0 20.48-9.1648 20.48-20.48s-9.1648-20.48-20.48-20.48zM414.72 563.2H107.52c-11.3152 0-20.48 9.1648-20.48 20.48s9.1648 20.48 20.48 20.48h307.2c11.3152 0 20.48-9.1648 20.48-20.48s-9.1648-20.48-20.48-20.48z"  p-id="16980"></path><path d="M688.64 266.24h-123.2896c-2.4576 0-4.864 0.256-7.2704 0.6144v-70.144c0-26.624-21.6064-48.2304-48.2304-48.2304H179.2c-11.3152 0-20.48 9.1648-20.48 20.48 0 5.632 2.304 10.752 5.9904 14.4896C168.448 187.136 173.568 189.44 179.2 189.44h330.6496c3.9936 0 7.2704 3.2768 7.2704 7.2704V752.64H433.408c-15.5648-41.8304-55.9104-71.68-103.168-71.68s-87.6032 29.8496-103.168 71.68H148.48c-11.3152 0-20.48 9.1648-20.48 20.48 0 5.632 2.304 10.752 5.9904 14.4896 3.7376 3.6864 8.8576 5.9904 14.4896 5.9904h71.7312c1.3312 59.5968 50.1248 107.52 110.0288 107.52s108.6976-47.9232 110.0288-107.52h179.3024c1.3312 59.5968 50.1248 107.52 110.0288 107.52s108.6976-47.9232 110.0288-107.52h49.1008c26.624 0 48.2304-21.6064 48.2304-48.2304V514.56c0-137.1648-111.1552-248.32-248.32-248.32z m-358.4 593.92c-37.2224 0-67.6864-29.6448-69.0688-66.56-0.0512-0.8192-0.0512-1.6896-0.0512-2.56 0-14.1824 4.3008-27.4432 11.6736-38.4 12.4416-18.5344 33.536-30.72 57.4464-30.72s45.0048 12.1856 57.4464 30.72a68.6592 68.6592 0 0 1 11.6736 38.4c0 0.8704 0 1.7408-0.0512 2.56-1.3824 36.9152-31.8464 66.56-69.0688 66.56z m399.36 0c-37.2224 0-67.6864-29.6448-69.0688-66.56-0.0512-0.8192-0.0512-1.6896-0.0512-2.56 0-14.1824 4.3008-27.4432 11.6736-38.4 12.4416-18.5344 33.536-30.72 57.4464-30.72s45.0048 12.1856 57.4464 30.72a68.6592 68.6592 0 0 1 11.6736 38.4c0 0.8704 0 1.7408-0.0512 2.56-1.3824 36.9152-31.8464 66.56-69.0688 66.56z m166.4-114.7904c0 3.9936-3.2768 7.2704-7.2704 7.2704h-55.9616c-15.5648-41.8304-55.9104-71.68-103.168-71.68s-87.6032 29.8496-103.168 71.68H558.08V314.4704c0-3.9936 3.2768-7.2704 7.2704-7.2704h123.2896c114.5344 0 207.36 92.8256 207.36 207.36v230.8096z"  p-id="16981"></path></svg>